<svg xmlns="http://www.w3.org/2000/svg" xmlns:xlink="http://www.w3.org/1999/xlink" x="0" y="0" version="1.1" viewBox="0 0 71 80" xml:space="preserve" style="enable-background:new 0 0 71 80"><g id="shortcut"><g><rect style="fill:none;stroke:#000;stroke-width:1.5;stroke-linecap:round;stroke-miterlimit:10" width="15" height="15" x="8.7" y="5.5" transform="matrix(0.9794 0.202 -0.202 0.9794 2.9663 -3.0096)"/><rect style="fill:none;stroke:#000;stroke-width:1.5;stroke-linecap:round;stroke-miterlimit:10" width="15" height="15" x="32.1" y="10.3" transform="matrix(0.9794 0.202 -0.202 0.9794 4.4179 -7.6196)"/><rect style="fill:none;stroke:#000;stroke-width:1.5;stroke-linecap:round;stroke-miterlimit:10" width="15" height="15" x="56.5" y="15.4" transform="matrix(0.9794 0.202 -0.202 0.9794 5.9366 -12.4431)"/><rect style="fill:none;stroke:#000;stroke-width:1.5;stroke-linecap:round;stroke-miterlimit:10" width="15" height="15" x="3.5" y="28.1" transform="matrix(0.9794 0.202 -0.202 0.9794 7.4147 -1.4916)"/><rect style="fill:none;stroke:#000;stroke-width:1.5;stroke-linecap:round;stroke-miterlimit:10" width="15" height="15" x="51.8" y="38" transform="matrix(0.9794 0.202 -0.202 0.9794 10.4186 -11.0319)"/><rect style="fill:none;stroke:#000;stroke-width:1.5;stroke-linecap:round;stroke-miterlimit:10" width="15" height="15" x="27.9" y="33.1" transform="matrix(0.9794 0.202 -0.202 0.9794 8.9335 -6.3151)"/><rect style="fill:none;stroke:#000;stroke-width:1.5;stroke-linecap:round;stroke-miterlimit:10" width="15" height="15" x="23.4" y="55" transform="matrix(0.9794 0.202 -0.202 0.9794 13.2501 -4.956)"/><rect style="fill:none;stroke:#000;stroke-width:1.5;stroke-linecap:round;stroke-miterlimit:10" width="15" height="15" x="-.4" y="50" transform="matrix(0.9794 0.202 -0.202 0.9794 11.7649 -0.2392)"/><rect style="fill:none;stroke:#000;stroke-width:1.5;stroke-linecap:round;stroke-miterlimit:10" width="15" height="15" x="47.4" y="59.5" transform="matrix(0.9794 0.202 -0.202 0.9794 14.6552 -9.6979)"/><path style="fill:none;stroke:#98c03d;stroke-width:1.5;stroke-linecap:round;stroke-linejoin:round;stroke-miterlimit:10" d="M11,7.1c0,0,4.1,8.4,3.5,10.7c0,0,3.1-8.3,7.7-9.2"/><path style="fill:none;stroke:#98c03d;stroke-width:1.5;stroke-linecap:round;stroke-linejoin:round;stroke-miterlimit:10" d="M30.9,35c0,0,4.1,8.4,3.5,10.7c0,0,3.1-8.3,7.7-9.2"/><path style="fill:none;stroke:#c1272d;stroke-width:1.5;stroke-linecap:round;stroke-linejoin:round;stroke-miterlimit:10" d="M56.2,40.4c0,0,3.7,4.5,4.1,9.4"/><path style="fill:none;stroke:#c1272d;stroke-width:1.5;stroke-linecap:round;stroke-linejoin:round;stroke-miterlimit:10" d="M64,40c0,0-8.5,5.3-9.4,8.3"/><path style="fill:none;stroke:#c1272d;stroke-width:1.5;stroke-linecap:round;stroke-linejoin:round;stroke-miterlimit:10" d="M4,53.8c0,0,3.7,4.5,4.1,9.4"/><path style="fill:none;stroke:#c1272d;stroke-width:1.5;stroke-linecap:round;stroke-linejoin:round;stroke-miterlimit:10" d="M11.8,53.3c0,0-8.5,5.3-9.4,8.3"/></g></g></svg>