<svg xmlns="http://www.w3.org/2000/svg" xmlns:xlink="http://www.w3.org/1999/xlink" x="0" y="0" version="1.1" viewBox="0 0 71 80" xml:space="preserve" style="enable-background:new 0 0 71 80"><g id="file"><g><polygon style="fill:#fff;stroke:#000;stroke-width:1.7618;stroke-linecap:round;stroke-linejoin:round;stroke-miterlimit:10" points="23.2 4 7 63.7 50.2 75.4 64 24.4 57.1 13.3"/><polyline style="fill:#fff;stroke:#000;stroke-width:1.8481;stroke-linecap:round;stroke-linejoin:round;stroke-miterlimit:10" points="63.7 24.4 53.6 21.6 55.8 13.4"/><line style="fill:none;stroke:#000;stroke-width:1.7622;stroke-linecap:round;stroke-linejoin:round;stroke-miterlimit:10" x1="40.4" x2="57.6" y1="21.9" y2="26.5"/><line style="fill:none;stroke:#000;stroke-width:1.7622;stroke-linecap:round;stroke-linejoin:round;stroke-miterlimit:10" x1="22.6" x2="54.8" y1="28.3" y2="37"/><line style="fill:none;stroke:#000;stroke-width:1.7622;stroke-linecap:round;stroke-linejoin:round;stroke-miterlimit:10" x1="19.8" x2="51.9" y1="38.8" y2="47.4"/><line style="fill:none;stroke:#000;stroke-width:1.7622;stroke-linecap:round;stroke-linejoin:round;stroke-miterlimit:10" x1="17" x2="49.1" y1="49.2" y2="57.9"/><line style="fill:none;stroke:#000;stroke-width:1.7622;stroke-linecap:round;stroke-linejoin:round;stroke-miterlimit:10" x1="14.1" x2="38.4" y1="59.7" y2="66.2"/><g><path style="fill:#128bc7" d="M34.3,13l-2.9,10.6c0,0.1-0.1,0.2-0.1,0.3s0,0.2,0.1,0.3c0.1,0.1,0.2,0.2,0.3,0.3 c0.1,0.1,0.3,0.2,0.6,0.3c0.2,0.1,0.3,0.2,0.2,0.4c0,0,0,0.1-0.1,0.2c0,0.1-0.1,0.1-0.1,0.2c-0.4-0.1-0.9-0.3-1.4-0.4 c-0.5-0.2-0.9-0.3-1.3-0.4c-0.4-0.1-0.8-0.2-1.3-0.3c-0.5-0.1-0.9-0.2-1.4-0.3c0-0.1,0-0.1,0-0.2c0-0.1,0-0.1,0-0.2 c0-0.1,0.1-0.2,0.1-0.2c0-0.1,0.2-0.1,0.3-0.1c0.5,0.1,0.9,0.1,1,0c0.2-0.1,0.3-0.3,0.3-0.5l2.9-10.6L30,11.9 c-0.4-0.1-0.7-0.2-1-0.2c-0.3,0-0.5,0.1-0.8,0.2c-0.2,0.1-0.5,0.3-0.7,0.5c-0.2,0.2-0.5,0.5-0.7,0.8c-0.1,0.1-0.2,0.1-0.4,0.1 c-0.1,0-0.2-0.1-0.3-0.1c-0.1-0.1-0.2-0.1-0.2-0.2c0.2-0.3,0.3-0.6,0.5-0.8s0.3-0.5,0.4-0.7c0.1-0.3,0.3-0.6,0.3-0.8 c0.1-0.2,0.2-0.4,0.2-0.5c0.1-0.1,0.2-0.1,0.4-0.1c0.1,0,0.4,0.1,0.9,0.3c0.4,0.2,0.9,0.3,1.6,0.5l6.2,1.7 c0.6,0.2,1.1,0.3,1.6,0.4c0.4,0.1,0.8,0.1,0.9,0.2c0.1,0,0.2,0.1,0.3,0.3c0,0.1,0,0.3-0.1,0.5c0,0.2-0.1,0.5-0.1,0.9 c0,0.3,0,0.5-0.1,0.8c0,0.3,0,0.6,0,0.9c-0.1,0-0.2,0-0.3,0c-0.1,0-0.2,0-0.3,0c-0.1,0-0.2-0.1-0.3-0.3c-0.1-0.4-0.1-0.7-0.2-1 c-0.1-0.3-0.2-0.5-0.4-0.7c-0.2-0.2-0.3-0.4-0.6-0.5c-0.2-0.1-0.5-0.3-0.9-0.4L34.3,13z"/></g></g><rect style="fill:#128bc7" width="71" height="23" y="56.7"/><g><path style="fill:#fff" d="M25.8,62.2h2.2c1.2,0,2,0.1,2.5,0.3c0.5,0.2,0.9,0.6,1.2,1.1c0.3,0.5,0.5,1.1,0.5,1.8 c0,0.7-0.2,1.3-0.5,1.8c-0.3,0.5-0.9,0.8-1.5,1.1l2.6,4.8h-2.2L28,68.4h-0.2V73h-2.1V62.2z M27.8,66.4h0.6c0.7,0,1.1-0.1,1.3-0.3 c0.2-0.2,0.4-0.5,0.4-0.9c0-0.2-0.1-0.4-0.2-0.6c-0.1-0.2-0.3-0.3-0.5-0.4c-0.2-0.1-0.6-0.1-1.1-0.1h-0.6V66.4z"/><path style="fill:#fff" d="M33.3,62.2h6v2h-2V73h-2.1v-8.8h-1.9V62.2z"/><path style="fill:#fff" d="M40.7,62.2H46v2h-3.3v2H46v2h-3.3V73h-2V62.2z"/></g></g></svg>