<svg xmlns="http://www.w3.org/2000/svg" xmlns:xlink="http://www.w3.org/1999/xlink" x="0" y="0" version="1.1" viewBox="0 0 71 80" xml:space="preserve" style="enable-background:new 0 0 71 80"><g id="file"><g><polygon style="fill:none;stroke:#000;stroke-width:1.4276;stroke-linecap:round;stroke-linejoin:round;stroke-miterlimit:10" points="50.7 10.2 47.6 23.4 63.1 27.1"/><polygon style="fill:none;stroke:#000;stroke-width:1.4276;stroke-linecap:round;stroke-linejoin:round;stroke-miterlimit:10" points="51 10.3 21.5 3.4 7 65.4 51.8 75.8 63.3 26.5"/></g><rect style="fill:#98c03d" width="71" height="23" y="56.3"/><g><path style="fill:#fff" d="M20.4,61.8h6v2h-2v8.8h-2.1v-8.8h-1.9V61.8z"/><path style="fill:#fff" d="M27.6,61.8h2v10.8h-2V61.8z"/><path style="fill:#fff" d="M32,61.8h5.3v2H34v2h3.3v2H34v4.8h-2V61.8z"/><path style="fill:#fff" d="M39.2,61.8h5.3v2h-3.3v2h3.3v2h-3.3v4.8h-2V61.8z"/></g><g><polygon style="fill:#98c03d" points="20.1 37.3 28.6 32.2 32.3 37.4 44.2 30.5 52.2 44.1 49.4 54.5 17.5 46.2 18.3 43.1"/><ellipse style="fill:#98c03d" cx="29.3" cy="26" rx="3.7" ry="3.7" transform="matrix(0.2538 -0.9673 0.9673 0.2538 -3.277 47.788)"/></g></g></svg>